<?xml version="1.0" encoding="iso-8859-1"?>
<!-- Uploaded to: SVG Repo, www.svgrepo.com, Generator: SVG Repo Mixer Tools -->
<!DOCTYPE svg PUBLIC "-//W3C//DTD SVG 1.1//EN" "http://www.w3.org/Graphics/SVG/1.1/DTD/svg11.dtd">
<svg fill="#000000" version="1.1" id="Capa_1" xmlns="http://www.w3.org/2000/svg" xmlns:xlink="http://www.w3.org/1999/xlink" 
	 width="800px" height="800px" viewBox="0 0 590.067 590.067"
	 xml:space="preserve">
<g>
	<g>
		<path d="M322.258,241.683c0-15.262-10.5-33.956-22.912-33.956h-3.548c-11.657,0-23.83,17.365-23.83,33.956l2.448,39.158
			l-108.477,69.91v30.754l110.925-42.391l2.132,111.173l-46.12,24.939v13.933l62.156-20.903l62.155,20.903v-13.933l-44.149-25.79
			l4.235-108.62l106.852,40.698v-30.753l-104.03-66.297L322.258,241.683z"/>
		<path d="M583.04,505.266L323.647,54.154c-7.717-13.368-17.776-20.751-28.305-20.751c-10.729,0-20.99,7.564-28.908,21.286
			L7.032,505.008c-7.908,13.692-9.208,27.138-3.586,36.873c5.508,9.533,16.935,14.783,32.207,14.783h518.766
			c15.31,0,26.756-5.23,32.245-14.717C592.239,532.279,590.918,518.921,583.04,505.266z M515.649,516.979H74.281
			c-15.591,0-21.979-11.053-14.197-24.562l220.956-383.579c7.782-13.509,20.508-13.505,28.278,0.011l220.547,383.556
			C537.637,505.922,531.241,516.979,515.649,516.979z"/>
	</g>
</g>
</svg>