<?xml version="1.0" encoding="UTF-8"?>
<svg xmlns="http://www.w3.org/2000/svg" xmlns:xlink="http://www.w3.org/1999/xlink" width="615.97pt" height="615.97pt" viewBox="0 0 615.97 615.97" version="1.1">
<defs>
<clipPath id="clip1">
  <path d="M 0 0 L 615.96875 0 L 615.96875 615.96875 L 0 615.96875 Z M 0 0 "/>
</clipPath>
</defs>
<g id="surface1">
<g clip-path="url(#clip1)" clip-rule="nonzero">
<path style="fill:none;stroke-width:70;stroke-linecap:butt;stroke-linejoin:miter;stroke:rgb(19.999695%,19.599915%,56.498718%);stroke-opacity:1;stroke-miterlimit:4;" d="M 6124.6875 3079.85625 C 6124.6875 1398.215625 4761.445313 34.973438 3079.84375 34.973438 C 1398.203125 34.973438 35 1398.215625 35 3079.85625 C 35 4761.457813 1398.203125 6124.7 3079.84375 6124.7 C 4761.445313 6124.7 6124.6875 4761.457813 6124.6875 3079.85625 Z M 6124.6875 3079.85625 " transform="matrix(0.1,0,0,-0.1,0,615.97)"/>
</g>
<path style=" stroke:none;fill-rule:nonzero;fill:rgb(19.999695%,19.599915%,56.498718%);fill-opacity:1;" d="M 44.753906 357.214844 C 46.976563 369.0625 49.882813 380.804688 53.742188 392.238281 C 55.542969 389.65625 57.363281 387.125 59.203125 384.644531 C 58.515625 382.5625 57.90625 380.460938 57.351563 378.339844 L 82.675781 371.246094 C 86.53125 370.164063 88.910156 369.390625 89.816406 368.917969 C 95.679688 365.640625 97.871094 362.050781 96.972656 357.796875 C 96.300781 355.007813 92.21875 352.050781 84.789063 348.21875 C 80.71875 346.183594 75.746094 345.453125 69.742188 346.234375 C 66.777344 346.59375 64.199219 347.710938 62.132813 349.636719 C 60.085938 351.558594 59.300781 353.820313 59.777344 356.347656 C 60.164063 358.421875 61.21875 359.941406 63.027344 360.855469 C 64.808594 361.777344 66.839844 361.964844 69.113281 361.457031 C 71.066406 361.023438 72.519531 360.050781 73.476563 358.574219 C 74.414063 357.101563 74.785156 355.5625 74.484375 353.945313 C 77.035156 354.007813 79.792969 354.914063 83.054688 356.496094 C 86.460938 358.214844 88.339844 359.84375 88.722656 361.523438 C 89.019531 362.84375 88.441406 363.691406 86.960938 364.066406 L 55.621094 371.992188 C 53.109375 361.765625 51.121094 351.414063 49.769531 340.976563 C 47.640625 343.484375 45.523438 346.058594 43.414063 348.695313 L 43.484375 350.558594 C 38.648438 351.140625 35.058594 353.855469 32.988281 358.910156 C 31.613281 362.246094 31.863281 367.117188 33.972656 373.3125 C 34.808594 376.257813 35.25 377.617188 35.214844 377.425781 C 35.332031 377.867188 35.976563 379.550781 37.152344 382.460938 C 37.433594 383.257813 37.53125 384.421875 37.433594 385.976563 C 37.332031 387.53125 37.023438 388.523438 36.464844 388.960938 C 35.683594 389.601563 35.101563 389.984375 34.714844 390.101563 C 34.140625 390.273438 33.335938 390.070313 32.304688 389.472656 C 31.152344 389.8125 30.226563 390.226563 29.535156 390.710938 C 29.316406 391.128906 29.292969 391.621094 29.476563 392.199219 C 29.898438 393.546875 30.671875 394.332031 31.789063 394.542969 C 33.554688 395.25 35.519531 395.246094 37.683594 394.550781 C 40.484375 393.65625 42.570313 391.613281 43.976563 388.519531 C 45.722656 384.71875 46.175781 380.46875 44.859375 375.753906 C 44.671875 375.089844 44.300781 374.019531 43.800781 372.527344 C 42.605469 368.808594 41.734375 365.804688 41.234375 363.53125 C 40.300781 360.378906 40.949219 358.359375 43.171875 357.507813 C 43.894531 357.359375 44.421875 357.261719 44.753906 357.214844 "/>
<path style=" stroke:none;fill-rule:nonzero;fill:rgb(19.999695%,19.599915%,56.498718%);fill-opacity:1;" d="M 96.410156 355.902344 C 96.859375 360.152344 97.445313 363.03125 98.027344 364.53125 C 99.511719 370.785156 98.230469 374.585938 93.476563 376.117188 C 91.566406 376.722656 90.125 376.820313 89.148438 376.402344 L 86.105469 381.082031 C 90.753906 380.738281 93.675781 380.371094 94.90625 380.066406 C 95.695313 379.910156 96.46875 379.703125 97.226563 379.445313 C 106.183594 376.351563 109.265625 371.035156 107.277344 363.292969 C 105.726563 357.503906 105.15625 353.230469 104.699219 350.691406 C 104.582031 349.007813 105.253906 347.457031 106.695313 346.085938 C 107.78125 345.351563 108.894531 344.574219 110.035156 343.757813 C 110.929688 342.703125 111.753906 341.605469 112.578125 340.453125 L 64.847656 348.308594 C 67.496094 349.90625 70.179688 351.4375 72.828125 352.921875 L 99.195313 347.914063 C 96.96875 349.972656 95.96875 352.675781 96.410156 355.902344 "/>
<path style=" stroke:none;fill-rule:nonzero;fill:rgb(19.999695%,19.599915%,56.498718%);fill-opacity:1;" d="M 43.382813 349.210938 C 43.558594 350.558594 44.085938 352.730469 45.066406 355.691406 C 46.941406 353.039063 48.863281 350.4375 50.894531 347.878906 C 50.789063 347.167969 50.714844 346.664063 50.671875 346.367188 C 50.441406 344.765625 50.804688 343.210938 51.765625 341.734375 C 52.714844 340.257813 54.050781 339.25 55.734375 338.691406 C 56.054688 338.535156 56.929688 338.3125 58.371094 338.027344 L 95.847656 333.5625 C 98.273438 331.460938 100.699219 329.425781 103.132813 327.453125 L 48.992188 332.523438 C 48.625 329.472656 48.515625 326.398438 48.304688 323.335938 C 45.910156 325.707031 43.496094 328.148438 41.136719 330.648438 L 41.453125 333.753906 C 41.035156 334.222656 40.640625 334.601563 40.269531 334.886719 C 38.875 335.582031 37.101563 336.167969 34.949219 336.644531 L 31.917969 341.175781 C 37.472656 340.515625 41.851563 339.84375 45.058594 339.171875 L 46.726563 338.832031 C 43.75 341.132813 42.734375 344.613281 43.382813 349.210938 "/>
<path style=" stroke:none;fill-rule:nonzero;fill:rgb(19.999695%,19.599915%,56.498718%);fill-opacity:1;" d="M 63.164063 310.703125 C 65.011719 309.789063 66.335938 309.347656 67.136719 309.34375 C 67.738281 309.339844 68.375 309.558594 69.050781 309.992188 C 70.265625 310.640625 70.882813 311.445313 70.902344 312.425781 C 70.90625 312.589844 70.097656 313.742188 68.472656 315.9375 L 74.695313 317.667969 C 78.742188 313.675781 80.75 311.011719 80.714844 309.375 C 80.636719 307.484375 80.027344 306.039063 78.550781 305.011719 C 75.195313 302.792969 71.957031 300.984375 68.839844 299.660156 C 66.527344 298.417969 65.105469 297.566406 64.582031 297.148438 C 64.914063 297.164063 65.019531 297.027344 64.894531 296.742188 C 64.703125 296.394531 64.609375 296.054688 64.617188 295.714844 C 64.660156 294.816406 65.234375 294.085938 66.273438 293.53125 C 66.5 293.207031 67.042969 292.902344 67.898438 292.625 C 68.753906 292.34375 69.449219 292.222656 69.976563 292.257813 L 94.511719 293.855469 C 96.550781 292.089844 98.585938 290.375 100.609375 288.707031 L 48.828125 283.964844 C 48.984375 281.074219 49.457031 278.214844 49.789063 275.34375 C 47.039063 277.269531 44.222656 279.253906 41.511719 281.3125 C 39.726563 299.0625 39.761719 316.9375 41.546875 334.679688 C 43.800781 332.132813 46.03125 329.652344 48.421875 327.226563 L 47.972656 319.960938 L 49.117188 319.011719 C 50.332031 317.050781 51.136719 314.988281 51.488281 312.796875 C 52.101563 308.882813 53.867188 306.421875 56.664063 305.410156 C 56.933594 305.242188 57.605469 305.132813 58.675781 305.085938 C 59.140625 305.207031 59.867188 305.5 60.855469 305.960938 C 61.386719 306.25 61.71875 306.28125 61.855469 306.054688 C 61.855469 306.167969 60.90625 306.664063 59.019531 307.574219 C 56.144531 308.941406 54.367188 310.503906 53.59375 312.207031 C 52.492188 313.917969 51.960938 315.46875 51.988281 316.816406 C 51.996094 319.050781 53.046875 321.074219 54.84375 322.835938 C 56.664063 324.597656 58.804688 325.363281 61.273438 325.191406 C 64.613281 325.074219 66.578125 323.75 67.160156 321.261719 C 67.617188 320.011719 67.820313 318.945313 67.765625 318.054688 C 67.742188 316.886719 67.148438 315.757813 65.984375 314.640625 C 64.820313 313.523438 63.53125 312.964844 62.121094 312.996094 C 61.65625 313.003906 61.152344 313.125 60.617188 313.351563 C 60.796875 312.335938 61.648438 311.445313 63.164063 310.703125 Z M 60.902344 291.667969 L 60.359375 289.574219 C 57.585938 290.863281 55.640625 292.265625 54.527344 293.726563 C 53.234375 295.417969 53.042969 297.011719 53.648438 298.441406 C 54.476563 299.824219 55.640625 301.355469 57.132813 303.003906 C 57.691406 302.023438 57.976563 301.277344 57.988281 300.753906 C 58.007813 300.058594 57.015625 299.675781 55.011719 299.609375 C 52.339844 299.523438 49.945313 300.359375 47.824219 302.191406 C 47.941406 298.410156 47.9375 294.621094 48.304688 290.847656 L 60.902344 291.667969 "/>
<path style=" stroke:none;fill-rule:nonzero;fill:rgb(19.999695%,19.599915%,56.498718%);fill-opacity:1;" d="M 51.667969 228.222656 L 43.929688 228.320313 C 39.136719 230.738281 35.699219 232.953125 33.65625 234.78125 C 27.324219 240.761719 23.28125 247.304688 22.148438 253.921875 C 21.671875 256.570313 21.753906 258.976563 22.394531 261.113281 C 23.238281 264.503906 24.496094 267.09375 25.796875 268.863281 C 26.890625 270.34375 28.832031 272.253906 31.636719 274.53125 C 32.808594 275.386719 34.390625 275.921875 36.375 276.148438 C 37.570313 276.289063 38.65625 276.066406 39.640625 275.492188 C 40.621094 274.917969 41.550781 274.316406 42.441406 273.683594 C 41.910156 277.664063 41.410156 281.652344 41.175781 285.664063 C 43.871094 283.582031 46.433594 281.550781 49.25 279.605469 L 49.992188 273.753906 L 94.683594 279.632813 C 97.367188 278.066406 99.90625 276.542969 102.667969 275.117188 L 50.941406 266.914063 L 52.582031 257.722656 C 49.726563 259.460938 46.863281 261.265625 43.992188 263.132813 L 43.207031 267.703125 L 39.664063 268.589844 C 39.125 268.636719 37.949219 267.808594 36.164063 266.0625 C 34.78125 264.691406 33.710938 263.480469 32.945313 262.441406 L 31.757813 259.980469 C 30.605469 257.351563 30.328125 254.269531 30.980469 250.800781 C 32.355469 244.945313 35.234375 240.042969 40.050781 236.484375 C 43.949219 233.613281 47.824219 230.859375 51.667969 228.222656 "/>
<path style=" stroke:none;fill-rule:nonzero;fill:rgb(19.999695%,19.599915%,56.498718%);fill-opacity:1;" d="M 60.058594 255.558594 C 61.472656 252.988281 62.914063 251.203125 64.382813 250.183594 C 66.34375 248.808594 68.78125 248.328125 71.707031 248.714844 C 71.4375 249.222656 71.21875 249.835938 71.054688 250.546875 C 70.269531 253.9375 70.703125 256.511719 72.355469 258.214844 C 74.335938 260.21875 76.535156 261.425781 78.738281 261.867188 C 79.332031 261.984375 79.960938 262.054688 80.628906 262.082031 C 82.316406 262.09375 83.265625 262.097656 83.46875 262.085938 C 83.945313 262.023438 84.765625 261.730469 85.90625 261.222656 C 87.796875 260.441406 89.019531 258.863281 89.578125 256.445313 C 90.148438 253.980469 89.222656 251.316406 87.097656 248.394531 C 88.1875 247.488281 90.1875 246.316406 93.070313 244.953125 C 94.507813 244.300781 96.53125 244 99.148438 244.0625 C 100.117188 244.097656 102.265625 244.226563 105.691406 244.53125 L 111.414063 242.953125 L 60.972656 226.277344 C 61.957031 223.421875 62.871094 220.539063 63.921875 217.707031 C 60.71875 218.984375 57.621094 220.378906 54.433594 221.8125 C 49.355469 236.746094 45.601563 252.128906 43.207031 267.714844 C 45.84375 265.929688 48.554688 264.210938 51.21875 262.542969 L 53.542969 262.042969 C 55.175781 261.246094 56.398438 260.484375 57.210938 259.738281 C 58.050781 259.003906 58.882813 257.578125 60.058594 255.558594 Z M 87.292969 241.109375 C 83.914063 242.25 81.40625 243.234375 79.804688 243.972656 C 78.355469 243.453125 76.988281 243.125 75.703125 242.996094 C 71.429688 242.613281 68.148438 242.660156 65.859375 243.125 C 63.796875 243.589844 61.777344 244.296875 59.988281 245.304688 C 59.132813 245.757813 57.371094 246.828125 54.699219 248.601563 C 55.835938 243.175781 57.460938 237.871094 58.960938 232.539063 L 87.292969 241.109375 "/>
<path style=" stroke:none;fill-rule:nonzero;fill:rgb(19.999695%,19.599915%,56.498718%);fill-opacity:1;" d="M 84.132813 175.164063 C 80.855469 175.839844 77.550781 176.570313 74.214844 177.359375 C 65.726563 192.519531 58.71875 208.515625 53.34375 225.046875 C 56.148438 223.714844 58.941406 222.4375 61.71875 221.210938 L 62.726563 220.417969 C 63.636719 220.230469 64.207031 220.117188 64.429688 220.074219 C 66.351563 219.683594 68.035156 218.164063 69.316406 215.429688 C 70.675781 212.339844 71.921875 210.550781 73.046875 210.066406 C 75.066406 209.0625 78.03125 209.230469 81.707031 210.445313 C 82.90625 212.203125 84.152344 213.949219 85.457031 215.695313 C 87.121094 218.011719 87.859375 219.421875 87.640625 219.980469 C 87.457031 220.441406 86.339844 220.730469 84.277344 220.875 C 82.894531 220.933594 81.109375 220.636719 78.933594 219.980469 C 80.125 222.195313 81.242188 224.347656 82.53125 226.519531 C 90.117188 226.085938 94.53125 225.460938 95.652344 224.195313 C 96.480469 223.730469 97.203125 222.71875 97.816406 221.152344 C 98.066406 220.515625 98.226563 220.015625 98.300781 219.644531 C 98.652344 218.175781 95.796875 213.886719 89.980469 206.085938 C 88.671875 204.308594 88.230469 202.777344 88.84375 201.632813 C 89.253906 200.832031 90.175781 200.199219 91.601563 199.757813 C 93.03125 199.316406 94.277344 199.222656 95.351563 199.460938 L 116.128906 210.085938 C 119.527344 209.753906 122.871094 209.476563 126.214844 209.28125 L 79.222656 183.699219 Z M 69.261719 204.191406 C 71.460938 199.292969 73.625 194.378906 76.160156 189.644531 L 87.578125 195.484375 C 82.527344 196.171875 79.394531 197.445313 78.613281 199.273438 C 78.230469 200.125 78.332031 201.535156 78.929688 203.46875 L 79.363281 204.714844 C 75.628906 203.085938 72.269531 202.882813 69.261719 204.191406 "/>
<path style=" stroke:none;fill-rule:nonzero;fill:rgb(19.999695%,19.599915%,56.498718%);fill-opacity:1;" d="M 110.683594 172.132813 C 113.277344 171.703125 115.546875 171.738281 117.507813 172.207031 C 126.140625 174.460938 132.550781 177.460938 137.046875 180.804688 C 137.527344 181.164063 137.957031 181.480469 138.328125 181.761719 C 140.539063 182.074219 142.785156 182.453125 144.984375 182.832031 L 101.585938 149.453125 L 107.453125 142.027344 C 104.042969 142.246094 100.652344 142.5625 97.1875 142.910156 C 87.449219 155.335938 78.792969 168.617188 71.367188 182.5625 C 74.59375 181.652344 77.957031 180.890625 81.253906 180.167969 C 86.125 171.402344 91.628906 163 97.511719 154.890625 L 114.101563 166.976563 L 113.761719 166.933594 C 104.980469 165.253906 98.660156 166.90625 95.664063 171.769531 C 93.964844 174.484375 93.429688 177.386719 94.480469 180.617188 C 95.476563 183.816406 97.585938 186.292969 100.753906 188.125 C 106.820313 191.613281 111 190.75 114.128906 186.046875 C 116.4375 182.445313 115.414063 179.175781 111.074219 176.246094 C 109.53125 175.214844 107.53125 174.648438 105.050781 174.589844 C 106.195313 173.394531 108.058594 172.546875 110.683594 172.132813 "/>
<path style=" stroke:none;fill-rule:nonzero;fill:rgb(19.999695%,19.599915%,56.498718%);fill-opacity:1;" d="M 134.746094 126.554688 L 131.160156 126.105469 C 130.445313 125.960938 130.015625 126.234375 129.871094 126.921875 C 129.894531 127.449219 129.960938 127.847656 130.0625 128.117188 C 131.496094 132.804688 133.90625 136.691406 136.925781 139.664063 C 139.875 142.5625 142.914063 144.632813 146.011719 145.929688 C 151.933594 148.46875 156.941406 147.515625 161.648438 143.339844 C 162.804688 142.34375 163.976563 141.0625 165.183594 139.484375 C 167.113281 136.949219 168.5625 135.511719 169.28125 134.9375 C 171.742188 133.003906 174.523438 133.410156 177.578125 136.199219 C 179.144531 137.605469 180.394531 138.488281 181.339844 138.851563 L 186.199219 140.1875 L 155.769531 98.339844 C 154.75 96.9375 152.753906 96 149.730469 95.578125 C 146.742188 95.210938 144.613281 95.53125 143.351563 96.429688 C 140.574219 98.410156 138.550781 101.429688 137.773438 105.8125 C 137.019531 109.285156 137.015625 112.863281 137.757813 116.542969 C 138.570313 120.847656 140.207031 124.230469 142.511719 126.753906 C 143.773438 128.136719 145.171875 129.160156 146.753906 129.914063 C 149.960938 131.460938 152.789063 131.171875 155.300781 128.996094 C 155.792969 128.570313 156.265625 128.074219 156.714844 127.507813 C 157.527344 126.523438 157.816406 125.203125 157.613281 123.5625 C 157.402344 121.910156 156.824219 120.476563 155.859375 119.285156 C 154.730469 117.882813 153.390625 116.902344 151.824219 116.351563 C 150.25 115.789063 148.886719 116.011719 147.753906 117.011719 C 147.578125 117.164063 147.398438 117.363281 147.222656 117.601563 C 146.664063 116.402344 146.285156 115.089844 146.089844 113.660156 C 145.886719 111.667969 146.089844 109.488281 146.636719 107.003906 C 147.242188 104.21875 148.148438 102.355469 149.296875 101.457031 C 149.484375 101.308594 149.550781 101.246094 149.492188 101.269531 L 169.953125 127.917969 L 168.539063 127.632813 C 165.523438 127.527344 162.273438 128.589844 159.265625 131.246094 C 157.851563 132.476563 156.445313 134.003906 155.0625 135.816406 C 154.347656 136.703125 153.074219 137.515625 151.359375 138.414063 C 149.621094 139.292969 148.199219 139.660156 147.09375 139.519531 C 144.539063 139.1875 142.007813 137.777344 139.539063 135.25 L 138.421875 134.105469 C 136.5625 131.546875 135.332031 129.035156 134.746094 126.554688 "/>
<path style=" stroke:none;fill-rule:nonzero;fill:rgb(19.999695%,19.599915%,56.498718%);fill-opacity:1;" d="M 184.8125 78.640625 C 191.882813 74.867188 199.117188 71.425781 206.472656 68.230469 C 203.4375 66.855469 200.351563 65.507813 197.199219 64.1875 C 180.648438 71.714844 164.878906 80.9375 150.199219 91.648438 C 153.480469 92.378906 156.710938 93.148438 159.894531 93.953125 C 166.066406 89.722656 172.355469 85.632813 178.894531 81.984375 L 182.484375 88.253906 C 179.496094 87.011719 177.121094 86.898438 175.433594 87.867188 C 173.707031 88.886719 172.640625 90.480469 172.160156 92.464844 C 171.695313 94.460938 172.144531 96.324219 173.476563 98.074219 C 176.535156 102.1875 179.460938 103.355469 182.265625 101.554688 C 183.253906 100.933594 183.953125 99.992188 184.3125 98.621094 C 184.679688 97.257813 184.535156 95.996094 183.859375 94.84375 C 183.460938 94.152344 182.8125 93.484375 181.925781 92.84375 C 181.722656 92.730469 181.695313 92.246094 181.847656 91.390625 C 181.335938 92.222656 181.203125 92.835938 181.4375 93.238281 L 179.769531 91.429688 C 178.914063 91.921875 178.910156 92.578125 179.742188 93.40625 C 180.789063 93.800781 181.640625 94.046875 182.289063 94.132813 C 183.675781 94.335938 185.375 95.4375 187.367188 97.441406 C 189.921875 99.972656 191.535156 101.507813 192.265625 102.011719 C 194.15625 103.253906 195.910156 103.3125 197.691406 102.402344 C 199.183594 101.640625 200.34375 100.039063 201.230469 97.5625 C 202.503906 94.886719 203.257813 92.511719 203.453125 90.46875 C 204.4375 91.488281 205.171875 92.515625 205.660156 93.535156 C 206.183594 94.632813 206.566406 96.328125 206.886719 98.71875 C 206.960938 101.460938 206.742188 103.335938 206.199219 104.363281 C 204.820313 107.019531 203.105469 108.875 200.972656 109.960938 C 196.910156 112.285156 192.390625 112.132813 187.191406 109.703125 C 183.554688 108.078125 180.890625 106.617188 179.304688 105.257813 C 175.605469 102.238281 172.203125 99.066406 169.160156 95.710938 C 165.855469 94.785156 162.527344 93.949219 159.207031 93.246094 L 168.730469 102.4375 C 173.058594 106.570313 176.242188 109.523438 178.28125 111.132813 C 180.753906 112.796875 183.015625 114.320313 185.085938 115.6875 C 188.457031 117.925781 191.933594 119.203125 195.707031 119.890625 C 199.757813 120.648438 202.996094 120.316406 205.578125 118.832031 C 211.652344 115.8125 214.046875 110.363281 213.265625 102.625 C 212.855469 99.003906 212.003906 95.65625 210.625 92.617188 C 209.222656 89.519531 207.207031 86.695313 204.503906 84.183594 C 201.8125 81.699219 198.902344 79.941406 195.941406 79.257813 C 195.597656 83.632813 195.441406 86.59375 195.367188 88.203125 C 195.328125 88.75 195.105469 89.914063 194.722656 91.679688 C 194.34375 93.445313 194.078125 94.402344 193.910156 94.566406 C 193.714844 94.664063 193.46875 94.566406 193.179688 94.265625 C 193.175781 94.265625 193.125 94.144531 193.019531 93.894531 L 184.8125 78.640625 "/>
<path style=" stroke:none;fill-rule:nonzero;fill:rgb(19.999695%,19.599915%,56.498718%);fill-opacity:1;" d="M 273.183594 41.925781 L 269.859375 34.875 C 265.644531 31.382813 262.222656 29.292969 259.714844 28.242188 C 251.601563 24.8125 244.046875 24.144531 237.507813 25.707031 C 234.875 26.273438 232.753906 27.484375 231.085938 28.96875 C 228.382813 31.261719 226.511719 33.355469 225.4375 35.261719 C 224.53125 36.816406 223.601563 39.367188 222.71875 42.929688 C 222.4375 44.367188 222.609375 46.03125 223.230469 47.933594 C 223.605469 49.078125 224.257813 49.964844 225.183594 50.601563 C 226.109375 51.242188 227.046875 51.824219 227.988281 52.351563 L 216.558594 56.21875 C 219.589844 57.828125 222.5625 59.460938 225.472656 61.113281 C 227.339844 60.496094 229.195313 59.832031 231.074219 59.25 L 244.378906 102.320313 C 246.925781 104.132813 249.410156 105.957031 251.832031 107.796875 L 237.71875 57.359375 C 240.710938 56.492188 243.703125 55.644531 246.753906 54.996094 C 243.964844 53.0625 241.121094 51.15625 238.246094 49.414063 L 233.78125 50.679688 L 231.484375 47.800781 C 231.21875 47.324219 231.484375 45.929688 232.34375 43.605469 C 233.003906 41.753906 233.652344 40.253906 234.273438 39.109375 L 236.003906 36.957031 C 237.886719 34.703125 240.621094 33.355469 244.054688 32.527344 C 249.894531 31.082031 255.605469 31.941406 260.832031 34.765625 C 265.046875 36.972656 269.171875 39.410156 273.183594 41.925781 "/>
<path style=" stroke:none;fill-rule:nonzero;fill:rgb(19.999695%,19.599915%,56.498718%);fill-opacity:1;" d="M 292.359375 48.191406 C 289.96875 45.863281 287.507813 43.542969 284.984375 41.230469 C 267.75 42.699219 250.636719 45.84375 233.984375 50.621094 C 236.90625 52.390625 239.769531 54.179688 242.566406 55.988281 C 248.105469 54.742188 253.605469 53.242188 259.210938 52.3125 C 261.484375 64.3125 262.726563 70.699219 262.929688 71.476563 C 265.125 76.167969 267.699219 78.25 270.765625 77.699219 C 272.242188 77.398438 273.773438 76.59375 275.378906 75.113281 C 277.695313 72.871094 279.539063 70.285156 280.902344 67.355469 C 281.957031 68.765625 282.480469 70.308594 282.492188 71.984375 C 282.503906 75.203125 281.53125 77.910156 279.636719 80.097656 C 277.742188 82.292969 275.558594 83.511719 273.019531 83.871094 C 269.984375 84.421875 267.476563 83.851563 265.4375 82.183594 C 265.019531 81.988281 263.796875 80.75 261.691406 78.488281 C 259.414063 76.183594 257.175781 72.910156 254.910156 68.421875 C 252.898438 64.578125 251.269531 60.75 250.085938 56.917969 L 244.464844 55.039063 C 246.074219 59.730469 247.152344 62.902344 247.738281 64.546875 C 249.902344 70.410156 252.792969 76.171875 256.234375 81.878906 C 259.601563 86.519531 262.105469 89.621094 263.960938 91.304688 C 266.972656 94.089844 270.128906 95.359375 273.5625 95.078125 C 277.007813 94.878906 279.890625 93.90625 282.265625 91.679688 C 284.867188 89.285156 286.53125 86.039063 287.207031 81.800781 C 287.710938 78.621094 287.871094 75.664063 287.636719 72.941406 C 287.324219 69.289063 286.230469 65.777344 284.25 62.421875 C 282.265625 59.011719 279.785156 56.902344 276.808594 55.78125 C 275.761719 57.390625 275.054688 58.691406 274.660156 59.679688 C 273.300781 63.519531 271.269531 66.003906 268.570313 67.632813 L 265.882813 51.121094 C 274.65625 49.707031 283.496094 48.742188 292.359375 48.191406 "/>
<path style=" stroke:none;fill-rule:nonzero;fill:rgb(19.999695%,19.599915%,56.498718%);fill-opacity:1;" d="M 339.210938 41.472656 L 337.699219 33.8125 C 334.449219 29.460938 331.636719 26.628906 329.464844 24.957031 C 322.4375 19.59375 315.292969 17.265625 308.601563 17.074219 C 305.917969 17.078125 303.574219 17.671875 301.601563 18.710938 C 298.433594 20.257813 296.113281 21.820313 294.609375 23.398438 C 293.355469 24.675781 291.835938 27.003906 290.109375 30.199219 C 289.484375 31.519531 289.246094 33.175781 289.382813 35.171875 C 289.464844 36.371094 289.878906 37.394531 290.617188 38.242188 C 291.359375 39.089844 292.121094 39.886719 292.90625 40.632813 L 280.894531 41.546875 C 283.433594 43.855469 285.910156 46.171875 288.324219 48.496094 L 294.207031 48.054688 L 296.558594 93.070313 C 298.589844 95.421875 300.5625 97.835938 302.46875 100.210938 L 301.105469 47.855469 C 304.210938 47.820313 307.316406 47.597656 310.425781 47.742188 C 308.199219 45.144531 305.90625 42.738281 303.550781 40.289063 L 298.921875 40.40625 L 297.402344 37.046875 C 297.261719 36.519531 297.859375 35.234375 299.253906 33.195313 C 300.34375 31.570313 301.335938 30.277344 302.214844 29.320313 L 304.410156 27.667969 C 306.78125 25.964844 309.753906 25.191406 313.269531 25.308594 C 319.269531 25.398438 324.589844 27.457031 328.96875 31.558594 C 332.507813 34.816406 335.933594 37.992188 339.210938 41.472656 "/>
<path style=" stroke:none;fill-rule:nonzero;fill:rgb(19.999695%,19.599915%,56.498718%);fill-opacity:1;" d="M 316.800781 69.410156 C 313.25 72.660156 311.445313 75.886719 311.191406 79.082031 C 310.765625 83.34375 311.519531 86.535156 313.339844 88.652344 C 314.773438 90.25 317.054688 90.988281 320.203125 91.175781 C 323.898438 91.480469 327.53125 90.398438 331.253906 88.136719 C 334.027344 87.085938 336.089844 85.328125 337.410156 82.875 C 338.515625 81.269531 339.210938 79.539063 339.460938 77.691406 C 339.738281 75.644531 339.386719 73.800781 338.375 72.160156 C 337.363281 70.519531 335.988281 69.589844 334.28125 69.371094 C 332.851563 69.164063 331.488281 69.765625 330.234375 71.082031 C 328.980469 72.390625 328.292969 73.910156 328.144531 75.636719 C 328.03125 76.964844 328.402344 78.230469 329.234375 79.429688 C 329.640625 79.863281 329.917969 80.117188 330.078125 80.195313 L 329.703125 80.769531 C 329.691406 80.902344 329.472656 81.019531 329.039063 81.117188 C 328.335938 81.335938 327.734375 81.589844 327.238281 81.886719 C 325.363281 82.949219 324 83.546875 323.109375 83.679688 C 319.96875 84.074219 318.4375 84.355469 318.488281 84.378906 C 317.609375 84.359375 317.109375 83.945313 316.988281 83.144531 C 316.804688 81.328125 318.6875 78.480469 322.878906 75.261719 C 328.894531 70.675781 333.144531 66.914063 335.136719 64.300781 L 337.144531 61.738281 C 338.496094 60.035156 339.328125 58.097656 339.601563 55.921875 C 339.789063 54.402344 339.6875 52.816406 339.289063 51.15625 L 338.828125 49.691406 C 342.28125 50.160156 345.753906 50.492188 349.183594 51.089844 C 347.695313 48.734375 346.136719 46.566406 344.546875 44.308594 L 342.265625 42.441406 C 341.527344 42.347656 341.070313 42.75 340.898438 43.652344 C 341.242188 40.855469 340.960938 38.347656 340.015625 36.132813 C 338.871094 33.429688 337.445313 31.414063 335.753906 30.253906 C 334.296875 29.332031 332.035156 28.550781 328.972656 27.910156 C 327.941406 27.835938 325.980469 27.832031 323.101563 27.914063 C 320.21875 28.0625 318.042969 28.191406 316.5625 28.140625 C 314.054688 28.074219 312.195313 27.765625 310.972656 27.199219 C 309.753906 26.636719 309.074219 26.152344 308.945313 25.746094 C 308.496094 24.597656 308.269531 23.621094 308.269531 22.816406 C 308.269531 21.882813 308.941406 20.554688 310.320313 18.84375 C 308.695313 18.246094 307.0625 17.722656 305.421875 17.242188 C 303.433594 19.160156 302.496094 21.863281 302.566406 25.34375 C 302.605469 27.480469 303.1875 29.175781 304.289063 30.421875 C 307.550781 34.617188 311.5625 37.015625 316.546875 37.269531 C 319.484375 37.191406 321.488281 37.082031 322.554688 37.085938 C 328.429688 37.332031 331.3125 37.433594 331.195313 37.359375 C 333.710938 38.085938 334.953125 38.484375 334.945313 38.550781 C 335.359375 39.445313 335.390625 40.347656 335.050781 41.253906 C 335.226563 42 334.898438 42.738281 334.089844 43.476563 L 331.511719 41.269531 C 320.738281 40.34375 309.929688 39.980469 299.132813 40.402344 C 301.5 42.882813 303.804688 45.367188 306.039063 47.855469 C 309.011719 47.742188 311.980469 47.945313 314.949219 47.980469 C 312.285156 51.226563 311.007813 54.773438 310.964844 58.617188 C 310.941406 60.539063 311.324219 62.273438 312.089844 63.816406 C 313.566406 66.570313 315.492188 68.109375 317.917969 68.4375 Z M 326.460938 61.871094 C 326.441406 62.140625 325.898438 62.472656 324.851563 62.867188 C 323.800781 63.261719 322.773438 63.421875 321.757813 63.34375 C 319.335938 63.164063 318.179688 61.71875 318.296875 58.683594 C 318.367188 56.949219 319.0625 55.496094 320.410156 54.328125 C 321.023438 53.742188 321.144531 53.179688 320.757813 52.632813 C 322.757813 55.785156 324.679688 59 326.523438 62.175781 Z M 332.617188 53.15625 C 332.359375 55.839844 331.316406 57.519531 329.519531 58.191406 L 325.285156 49.863281 C 325.601563 49.617188 325.882813 49.4375 326.132813 49.316406 C 327.0625 48.847656 328.042969 48.652344 329.0625 48.730469 C 331.699219 48.929688 332.886719 50.410156 332.617188 53.15625 "/>
<path style=" stroke:none;fill-rule:nonzero;fill:rgb(19.999695%,19.599915%,56.498718%);fill-opacity:1;" d="M 322.417969 91.597656 C 318.21875 90.71875 315.269531 90.679688 313.664063 90.710938 C 307.226563 90.316406 303.941406 88.027344 303.828125 83.046875 C 303.792969 81.042969 304.109375 79.628906 304.789063 78.808594 L 301.171875 74.585938 C 300.171875 79.148438 299.6875 82.058594 299.628906 83.324219 C 299.554688 84.128906 299.53125 84.929688 299.5625 85.726563 C 299.96875 95.230469 304.195313 99.554688 312.21875 99.929688 C 318.238281 100.109375 322.507813 100.667969 325.070313 101.078125 C 326.730469 101.402344 328.03125 102.433594 328.945313 104.175781 C 329.34375 105.433594 329.769531 106.742188 330.230469 108.082031 C 330.988281 109.257813 331.804688 110.40625 332.675781 111.53125 L 338.636719 63.523438 C 336.355469 65.601563 334.140625 67.640625 331.96875 69.769531 L 329.3125 96.476563 C 327.957031 93.808594 325.636719 92.183594 322.417969 91.597656 "/>
<path style=" stroke:none;fill-rule:nonzero;fill:rgb(19.999695%,19.599915%,56.498718%);fill-opacity:1;" d="M 396.277344 54.550781 L 396.453125 46.777344 C 394.207031 41.882813 392.152344 38.242188 390.355469 36.261719 C 384.59375 29.679688 378.183594 25.515625 371.605469 24.117188 C 368.980469 23.535156 366.589844 23.4375 364.414063 24.105469 C 360.972656 24.972656 358.359375 26.03125 356.542969 27.265625 C 355.03125 28.289063 353.058594 30.140625 350.691406 32.839844 C 349.800781 33.972656 349.210938 35.566406 348.914063 37.539063 C 348.734375 38.734375 348.925781 39.796875 349.464844 40.804688 C 350.003906 41.816406 350.574219 42.78125 351.175781 43.699219 C 347.226563 42.957031 343.214844 42.609375 339.234375 42.054688 C 341.226563 44.828125 343.15625 47.59375 345.019531 50.351563 C 346.976563 50.566406 348.914063 50.898438 350.847656 51.257813 L 343.476563 95.730469 C 344.949219 98.46875 346.359375 101.191406 347.707031 103.898438 L 357.648438 52.472656 C 360.726563 52.957031 363.738281 53.761719 366.777344 54.433594 C 365.140625 51.496094 363.445313 48.523438 361.679688 45.578125 L 357.113281 44.757813 L 356.347656 41.164063 C 356.320313 40.621094 357.183594 39.488281 358.988281 37.78125 C 360.410156 36.410156 361.664063 35.347656 362.730469 34.59375 L 365.238281 33.460938 C 367.898438 32.425781 370.980469 32.308594 374.417969 33.109375 C 380.304688 34.355469 384.984375 37.875 388.4375 42.59375 C 391.214844 46.464844 393.777344 50.605469 396.277344 54.550781 "/>
<path style=" stroke:none;fill-rule:nonzero;fill:rgb(19.999695%,19.599915%,56.498718%);fill-opacity:1;" d="M 405.339844 66.578125 C 404.207031 63.441406 403.011719 60.285156 401.757813 57.105469 C 387.261719 51.71875 372.296875 47.585938 357.101563 44.757813 C 358.894531 47.640625 360.644531 50.40625 362.285156 53.398438 C 371.570313 55.441406 380.785156 57.828125 389.792969 60.878906 L 389.386719 62.113281 C 379.710938 62.367188 369.601563 65.191406 359.773438 70.46875 C 361.050781 74.390625 362.238281 78.292969 363.339844 82.171875 C 366.789063 83.214844 369.691406 85.621094 372.097656 88.671875 C 375.398438 92.84375 376.863281 98.9375 376.617188 106.355469 C 377.007813 109.019531 377.359375 111.671875 377.675781 114.304688 L 396.128906 63.023438 C 399.238281 64.101563 402.269531 65.398438 405.339844 66.578125 Z M 379.574219 91.757813 C 378.136719 85.546875 375.269531 80.441406 371.132813 76.15625 C 376.492188 74.019531 381.5625 72.589844 386.015625 72.296875 L 379.574219 91.757813 "/>
<path style=" stroke:none;fill-rule:nonzero;fill:rgb(19.999695%,19.599915%,56.498718%);fill-opacity:1;" d="M 416.703125 48.199219 C 415.558594 46.886719 415.253906 45.550781 415.808594 44.195313 C 416.136719 43.398438 417.574219 42.644531 420.171875 41.957031 C 417.921875 39.703125 416.675781 38.53125 416.488281 38.457031 C 415.546875 38.085938 414.441406 38.4375 413.191406 39.519531 C 411.9375 40.597656 411.023438 41.921875 410.421875 43.472656 C 409.316406 46.328125 409.539063 49.277344 411.003906 52.289063 C 412.808594 56.015625 415.851563 58.90625 420.292969 60.953125 C 420.921875 61.238281 422.003906 61.664063 423.539063 62.230469 C 427.242188 63.507813 430.027344 64.910156 432.117188 65.929688 C 433.578125 66.527344 434.714844 67.558594 435.503906 69.007813 C 436.136719 70.074219 436.246094 70.914063 435.847656 71.523438 C 435.835938 71.148438 435.539063 70.917969 434.945313 70.835938 C 433.734375 70.726563 432.753906 70.664063 431.996094 70.644531 C 420.628906 64.550781 408.683594 59.578125 396.546875 55.246094 C 397.835938 58.304688 399.054688 61.375 400.171875 64.539063 C 405.765625 66.679688 411.308594 68.933594 416.722656 71.492188 L 409.660156 86.820313 L 411.570313 87.683594 L 411.378906 88.089844 L 411.464844 87.691406 C 411.699219 86.335938 411.675781 85.59375 411.398438 85.464844 C 411.117188 85.339844 410.535156 85.789063 409.660156 86.820313 C 408.734375 89.246094 408.519531 91.625 408.980469 93.929688 C 409.460938 96.203125 410.542969 97.847656 412.332031 98.769531 C 413.542969 99.390625 414.996094 99.574219 416.726563 99.339844 C 419.757813 98.859375 422.695313 97.800781 425.5 96.234375 C 425.453125 97.59375 425.117188 98.816406 424.5 99.921875 C 423.71875 101.3125 422.195313 102.78125 419.984375 104.347656 C 418.464844 105.441406 416.644531 106.054688 414.546875 106.195313 C 412.703125 106.300781 411.023438 105.964844 409.488281 105.179688 C 406.8125 103.746094 405.074219 101.769531 404.292969 99.019531 C 404.167969 98.527344 404.09375 98.054688 404.066406 97.601563 L 403.515625 93.730469 C 403.019531 90.585938 403.128906 86.609375 403.8125 81.804688 C 404.378906 77.421875 405.253906 73.453125 406.546875 69.875 L 402.902344 65.214844 C 399.832031 76.027344 398.070313 82.886719 397.769531 85.84375 C 397.394531 89.707031 397.148438 92.328125 397.085938 93.734375 C 397.136719 99.3125 397.316406 103.449219 397.910156 105.878906 C 398.769531 109.835938 400.742188 112.460938 403.664063 114.410156 C 406.441406 116.3125 409.40625 116.96875 412.5625 116.648438 C 416.042969 116.355469 419.257813 114.710938 422.171875 111.699219 C 424.71875 109.09375 426.714844 106.632813 428.105469 104.28125 C 429.832031 101.359375 430.851563 97.875 431.050781 93.765625 C 431.320313 89.3125 430.511719 86.542969 428.742188 85.527344 C 427.453125 84.855469 425.226563 85.414063 422.164063 87.222656 C 419.105469 89.03125 417.394531 89.847656 416.941406 89.613281 C 416.84375 89.5625 416.730469 89.46875 416.609375 89.335938 C 416.339844 88.746094 416.257813 88.242188 416.375 87.8125 C 416.492188 87.386719 416.640625 86.921875 416.824219 86.421875 L 422.769531 74.34375 C 430.75 78.320313 438.570313 82.617188 446.105469 87.382813 C 445.546875 84.03125 444.910156 80.683594 444.15625 77.40625 L 441.023438 75.601563 C 443.171875 71.859375 443.570313 68.214844 442.105469 64.625 C 440.878906 61.414063 438.21875 58.789063 434.386719 56.421875 C 432.023438 55.398438 429.679688 54.355469 427.257813 53.488281 C 423.578125 52.003906 421.445313 51.132813 420.855469 50.867188 L 419.476563 50.382813 L 419.210938 50.261719 C 418.492188 49.960938 417.6875 49.210938 416.703125 48.199219 "/>
<path style=" stroke:none;fill-rule:nonzero;fill:rgb(19.999695%,19.599915%,56.498718%);fill-opacity:1;" d="M 458.890625 115.464844 C 460.25 113.734375 460.953125 111.742188 460.964844 109.464844 C 460.953125 108.621094 460.722656 106.570313 460.113281 103.363281 C 461.363281 102.671875 462.675781 102.8125 464.113281 103.675781 C 465.175781 104.339844 465.582031 106.394531 465.253906 109.78125 C 464.921875 113.164063 464.257813 115.394531 463.335938 116.53125 L 443.070313 140.902344 C 443.027344 144.023438 442.808594 147.257813 442.574219 150.398438 L 476.855469 110.304688 C 479.121094 112.296875 481.453125 114.222656 483.664063 116.277344 C 483.753906 112.910156 483.671875 109.632813 483.609375 106.242188 C 482.296875 104.75 481.742188 103.597656 481.941406 102.789063 C 481.808594 102.941406 482.007813 102.710938 482.53125 102.09375 C 483.226563 101.269531 483.679688 100.277344 483.878906 99.109375 C 483.878906 97.429688 483.734375 95.015625 483.257813 92.011719 L 475.765625 101.765625 L 469.9375 110.285156 L 470.210938 109.246094 C 471.535156 100.859375 471.085938 95.796875 469.289063 94.390625 C 468.945313 94.132813 468.214844 93.761719 467.015625 93.40625 C 463.011719 92.0625 459.324219 92.277344 455.984375 94.042969 C 455.960938 91.011719 455.816406 88.707031 455.519531 87.277344 C 454.734375 85.027344 453.335938 83.257813 451.355469 81.988281 C 447.925781 79.710938 444.371094 77.636719 440.785156 75.609375 C 441.53125 78.96875 442.21875 82.300781 442.847656 85.597656 C 447.578125 88.449219 449.003906 89.238281 447.117188 87.945313 C 448.5 88.90625 449.425781 90.136719 449.882813 91.617188 C 449.9375 92.839844 449.933594 93.867188 449.875 94.699219 C 448.40625 94.863281 447.308594 95.027344 446.570313 95.1875 C 442.460938 95.875 439.53125 97.757813 437.65625 100.746094 C 437.304688 101.3125 436.984375 101.976563 436.703125 102.742188 C 435.429688 106.671875 435.953125 109.382813 438.34375 110.914063 C 440.582031 112.28125 443.1875 112.367188 446.503906 110.855469 C 446.308594 114.136719 447.132813 116.429688 449.054688 117.792969 C 450 118.445313 451.035156 118.886719 452.292969 118.964844 C 453.753906 119.136719 455.003906 118.878906 456.042969 118.1875 L 455.660156 118.265625 C 456.78125 117.707031 457.863281 116.777344 458.890625 115.464844 "/>
<path style=" stroke:none;fill-rule:nonzero;fill:rgb(19.999695%,19.599915%,56.498718%);fill-opacity:1;" d="M 481.691406 143.101563 C 481.601563 145.707031 481.113281 147.90625 480.261719 149.71875 C 476.300781 157.683594 471.9375 163.441406 467.761719 167.132813 C 467.308594 167.53125 466.910156 167.882813 466.5625 168.191406 L 464.175781 174.453125 L 505.769531 138.855469 C 507.871094 141.210938 509.875 143.644531 511.789063 146.152344 C 512.289063 142.765625 512.804688 139.273438 513.105469 135.871094 C 502.972656 123.765625 491.769531 112.550781 479.625 102.457031 C 479.773438 105.886719 479.871094 109.277344 479.921875 112.628906 C 487.484375 119.207031 494.546875 126.339844 501.320313 133.722656 L 486.078125 147.46875 L 486.191406 147.140625 C 489.640625 138.898438 489.226563 132.464844 485.1875 128.433594 C 482.867188 126.222656 480.027344 125.21875 476.742188 125.484375 C 473.46875 125.730469 470.582031 127.316406 468.136719 130.035156 C 463.5625 135.15625 463.304688 139.679688 467.386719 143.585938 C 470.527344 146.492188 473.792969 146.3125 477.578125 142.644531 C 478.90625 141.347656 479.886719 139.492188 480.484375 137.046875 C 481.371094 138.460938 481.785156 140.492188 481.691406 143.101563 "/>
<path style=" stroke:none;fill-rule:nonzero;fill:rgb(19.999695%,19.599915%,56.498718%);fill-opacity:1;" d="M 495.601563 196.042969 C 495.75 194.367188 497.03125 192.253906 499.527344 189.605469 C 501.683594 187.410156 503.855469 185.605469 506.058594 184.226563 C 513.941406 179.273438 521.578125 177.53125 528.703125 179.746094 C 532.730469 180.941406 536.375 183.5 538.996094 187.636719 C 540.15625 184.585938 541.34375 181.453125 542.328125 178.363281 C 540.316406 174.882813 536.855469 172.453125 531.917969 171.359375 C 522.882813 169.484375 514.273438 171.695313 505.722656 177.371094 C 497.230469 183.015625 492.078125 189.511719 490 196.382813 C 489.375 198.675781 489.550781 200.972656 490.835938 203.152344 C 491.804688 204.839844 493.5 205.835938 495.933594 206.199219 C 498.296875 206.597656 500.675781 206.199219 503.027344 204.953125 C 504.617188 204.113281 505.8125 202.871094 506.609375 201.207031 C 507.519531 199.300781 507.488281 197.898438 506.730469 196.941406 C 504.707031 193.429688 501.644531 192.90625 497.523438 195.375 C 496.738281 196.011719 496.101563 196.644531 495.613281 197.265625 C 495.550781 196.894531 495.546875 196.484375 495.601563 196.042969 "/>
<path style=" stroke:none;fill-rule:nonzero;fill:rgb(19.999695%,19.599915%,56.498718%);fill-opacity:1;" d="M 535.566406 228.136719 C 535.296875 227.339844 534.761719 226.492188 533.964844 225.597656 C 531.539063 224.464844 529.238281 224.34375 527.117188 225.148438 C 525.238281 225.859375 523.855469 227.046875 522.953125 228.675781 C 522.050781 230.304688 521.78125 231.898438 522.316406 233.433594 C 522.984375 235.421875 524.570313 236.761719 527.085938 237.519531 C 529.480469 238.144531 532 238.074219 534.617188 237.261719 C 540.96875 235.402344 545.5625 231.78125 548.277344 226.046875 C 550.410156 221.636719 550.9375 217.851563 549.796875 214.9375 L 550.921875 214.503906 C 553.574219 221.382813 555.996094 228.371094 557.972656 235.476563 C 559.734375 232.652344 561.609375 229.722656 563.222656 226.808594 C 557.398438 208.566406 549.605469 190.964844 540.046875 174.390625 C 539.054688 177.691406 538.046875 180.925781 536.972656 184.117188 C 541.148438 192.003906 545.039063 200.039063 548.464844 208.28125 L 546.800781 208.972656 C 540.375 201.898438 531.953125 196.5625 522.007813 193.335938 C 520.128906 196.914063 518.203125 200.414063 516.242188 203.828125 C 518.261719 209.367188 517.042969 215.269531 513.339844 220.796875 C 511.902344 222.859375 510.632813 224.363281 509.648438 225.3125 C 509.0625 225.820313 507.433594 227.0625 504.746094 228.984375 L 502.042969 233.324219 L 541.003906 218.320313 C 542.191406 221.027344 541.855469 223.941406 540.015625 226.9375 C 538.808594 228.988281 537.347656 230.488281 535.640625 231.476563 C 535.96875 230.363281 535.941406 229.25 535.566406 228.136719 Z M 519.625 220.25 C 523.320313 215.757813 525.261719 210.695313 525.832031 204.910156 C 528.324219 206.058594 529.828125 206.796875 530.316406 207.070313 C 532.679688 208.335938 535.367188 210.121094 538.003906 212.621094 L 519.625 220.25 "/>
<path style=" stroke:none;fill-rule:nonzero;fill:rgb(19.999695%,19.599915%,56.498718%);fill-opacity:1;" d="M 563.320313 227.105469 C 562.886719 225.816406 561.988281 223.761719 560.628906 220.964844 C 559.140625 223.886719 557.632813 226.753906 556.105469 229.5625 C 556.335938 230.246094 556.5 230.730469 556.574219 231.019531 C 557.019531 232.578125 556.867188 234.175781 556.117188 235.789063 C 555.371094 237.402344 554.210938 238.605469 552.644531 239.40625 C 552.355469 239.609375 551.523438 239.960938 550.148438 240.464844 L 513.785156 250.582031 C 511.722656 253.023438 509.773438 255.363281 507.574219 257.699219 L 560.3125 244.460938 L 562.390625 253.449219 C 564.375 250.746094 566.347656 247.976563 568.296875 245.140625 L 567.589844 242.097656 C 567.945313 241.566406 568.285156 241.128906 568.613281 240.792969 C 569.878906 239.894531 571.53125 239.046875 573.585938 238.25 L 575.8125 233.324219 C 570.425781 234.824219 566.203125 236.152344 563.140625 237.300781 L 561.546875 237.894531 C 564.023438 235.195313 564.714844 231.535156 563.320313 227.105469 "/>
<path style=" stroke:none;fill-rule:nonzero;fill:rgb(19.999695%,19.599915%,56.498718%);fill-opacity:1;" d="M 557.832031 274.691406 C 561.121094 274.257813 563.949219 272.8125 566.300781 270.253906 C 568.707031 267.6875 569.46875 264.878906 568.957031 261.867188 C 568.433594 258.980469 566.691406 256.65625 563.660156 255.011719 C 560.5625 253.378906 557.464844 252.953125 554.351563 253.640625 C 551.042969 254.367188 548.386719 256.074219 546.363281 258.664063 C 544.261719 261.273438 543.410156 263.917969 543.914063 266.683594 C 544.175781 268.152344 544.53125 269.210938 544.988281 269.867188 C 545.652344 270.820313 546.941406 271.824219 548.867188 272.90625 C 551.613281 274.492188 554.605469 275.117188 557.832031 274.691406 Z M 508.875 287.40625 L 516.445313 286.640625 C 525.988281 279.527344 532.054688 274.027344 534.3125 271.441406 C 538.269531 266.785156 541.59375 262.414063 544.066406 258.546875 L 529.757813 261.527344 C 523.824219 271.664063 519.089844 277.6875 515.890625 280.710938 C 513.554688 283.019531 511.226563 285.246094 508.875 287.40625 Z M 559.402344 267.890625 C 558.023438 268.109375 557.054688 268.144531 556.492188 268 C 555.511719 267.804688 554.332031 267.042969 552.953125 265.742188 C 551.574219 264.441406 550.816406 263.386719 550.664063 262.546875 C 550.507813 261.652344 551.207031 261.058594 552.773438 260.753906 C 554.984375 260.328125 556.8125 260.566406 558.261719 261.492188 C 560.816406 263.34375 562.042969 264.925781 561.921875 266.144531 C 561.816406 267.0625 560.976563 267.640625 559.402344 267.890625 "/>
<path style=" stroke:none;fill-rule:nonzero;fill:rgb(19.999695%,19.599915%,56.498718%);fill-opacity:1;" d="M 572.90625 351.078125 L 580.566406 349.898438 C 584.980469 346.835938 588.125 344.167969 589.855469 342.066406 C 595.347656 335.261719 598.265625 328.238281 598.574219 321.542969 C 598.746094 318.863281 598.222656 316.496094 597.285156 314.476563 C 595.871094 311.246094 594.449219 308.863281 592.890625 307.292969 C 591.589844 305.984375 589.386719 304.363281 586.269531 302.5 C 584.980469 301.816406 583.339844 301.507813 581.339844 301.554688 C 580.136719 301.582031 579.09375 301.953125 578.210938 302.65625 C 577.324219 303.359375 576.492188 304.085938 575.710938 304.835938 C 575.585938 300.820313 575.574219 296.808594 575.332031 292.800781 C 573.03125 295.230469 570.496094 297.605469 568.085938 299.914063 L 568.230469 305.808594 L 523.15625 306.179688 C 520.820313 308.105469 518.28125 309.96875 515.824219 311.769531 L 568.191406 312.703125 C 568.121094 315.8125 568.109375 318.921875 567.867188 322.023438 C 570.53125 319.910156 573.117188 317.726563 575.636719 315.480469 L 575.730469 310.851563 L 579.15625 309.480469 C 579.691406 309.363281 580.945313 310.015625 582.917969 311.496094 C 584.496094 312.660156 585.742188 313.707031 586.65625 314.628906 L 588.210938 316.894531 C 589.800781 319.332031 590.386719 322.339844 590.179688 325.855469 C 589.902344 331.851563 587.371094 337.070313 583.28125 341.28125 C 579.855469 344.671875 576.351563 347.933594 572.90625 351.078125 "/>
<path style=" stroke:none;fill-rule:nonzero;fill:rgb(19.999695%,19.599915%,56.498718%);fill-opacity:1;" d="M 561.441406 367.335938 C 564.433594 365.625 567.445313 363.851563 570.457031 362.003906 C 573.871094 345.078125 575.671875 327.839844 575.859375 310.613281 C 573.273438 312.992188 570.683594 315.308594 568.09375 317.554688 C 567.636719 328.96875 566.484375 340.363281 564.613281 351.644531 L 557.292969 350.40625 L 557.65625 350.113281 L 560.125 349.003906 C 561.652344 347.9375 562.628906 346.433594 563.039063 344.511719 C 563.304688 343.589844 562.960938 342.398438 561.996094 340.964844 C 561.203125 339.789063 560.300781 338.851563 559.265625 338.140625 L 559.8125 337.765625 C 563.082031 335.5625 564.835938 332.664063 565.046875 329.222656 C 565.191406 325.894531 563.648438 323.097656 560.429688 320.957031 C 557.59375 319.0625 554.242188 318.082031 550.359375 317.925781 C 545.753906 317.746094 542 318.785156 539.121094 320.925781 C 536.199219 323.066406 534.804688 325.851563 534.378906 329.34375 C 534.039063 332.628906 535.652344 335.101563 539.144531 336.835938 C 540.34375 337.363281 542.382813 337.410156 545.1875 336.917969 C 548.679688 336.230469 550.558594 334.585938 550.8125 332.0625 C 550.96875 330.546875 550.457031 329.15625 549.28125 327.910156 C 548.058594 326.660156 546.519531 325.980469 544.664063 325.84375 C 544 325.792969 543.367188 325.800781 542.765625 325.867188 C 543.730469 324.34375 545.390625 323.644531 547.738281 323.796875 C 549.882813 323.9375 551.6875 324.695313 553.148438 326.113281 C 554.632813 327.53125 555.273438 329.171875 555.066406 331 C 554.84375 333.226563 553.855469 334.945313 552.109375 336.121094 C 551.59375 336.519531 550.324219 337.085938 548.28125 337.796875 C 547.273438 338.179688 545.976563 337.984375 544.382813 337.234375 L 545.9375 342.207031 C 549.300781 342.238281 551.390625 342.523438 552.203125 343.097656 C 553.078125 343.691406 553.460938 344.398438 553.34375 345.210938 C 553.203125 346.191406 552.480469 347.085938 551.1875 347.875 C 549.867188 348.660156 548.628906 348.945313 547.511719 348.753906 L 519.585938 344.035156 C 516.832031 345.464844 514.09375 346.828125 511.371094 348.132813 L 563.382813 358.332031 C 562.878906 361.359375 562.082031 364.332031 561.441406 367.335938 "/>
<path style=" stroke:none;fill-rule:nonzero;fill:rgb(19.999695%,19.599915%,56.498718%);fill-opacity:1;" d="M 547.941406 388.144531 C 551.101563 389.199219 554.183594 389.125 557.207031 387.828125 C 560.222656 386.53125 562.230469 384.394531 563.085938 381.480469 C 563.878906 378.546875 563.3125 375.511719 561.363281 372.484375 C 559.4375 369.464844 556.699219 367.589844 553.484375 366.820313 C 550.21875 366.042969 547.203125 366.488281 544.191406 367.996094 C 541.195313 369.511719 539.347656 371.570313 538.621094 374.273438 C 538.175781 375.914063 537.984375 377.257813 538.214844 378.367188 C 538.414063 379.292969 539.121094 380.601563 540.328125 382.335938 C 542.253906 385.117188 544.78125 387.085938 547.941406 388.144531 Z M 512.726563 373.289063 C 514.789063 375.808594 517.414063 377.65625 520.625 378.726563 C 523.769531 379.773438 526.820313 379.84375 529.804688 378.859375 C 532.777344 377.871094 534.714844 376.070313 535.464844 373.511719 C 536.167969 370.878906 535.464844 368.121094 533.328125 365.347656 C 531.214844 362.574219 528.394531 360.828125 525.191406 360.066406 C 521.882813 359.277344 518.882813 359.558594 515.964844 360.75 C 513.0625 361.949219 511.304688 363.695313 510.671875 366.078125 C 510.015625 368.410156 510.644531 370.761719 512.726563 373.289063 Z M 551.347656 382.277344 C 550 381.867188 549.132813 381.480469 548.753906 381.121094 C 548.019531 380.539063 547.375 379.394531 546.8125 377.710938 C 546.210938 376.015625 545.992188 374.761719 546.21875 373.941406 C 546.484375 372.953125 547.460938 372.6875 549.144531 373.140625 C 551.480469 373.765625 553.066406 374.851563 553.894531 376.425781 C 554.964844 378.367188 555.367188 379.941406 554.996094 381.066406 C 554.554688 382.480469 553.339844 382.886719 551.347656 382.277344 Z M 522.691406 373.144531 C 520.777344 372.566406 519.445313 371.570313 518.691406 370.191406 C 517.761719 368.546875 517.316406 367.28125 517.566406 366.414063 C 517.863281 365.304688 519.363281 365.113281 522.066406 365.839844 C 524.578125 366.515625 526.210938 367.382813 526.957031 368.460938 C 527.878906 369.90625 528.222656 371.078125 527.992188 371.941406 C 527.453125 373.65625 525.6875 374.058594 522.691406 373.144531 "/>
<path style="fill:none;stroke-width:70;stroke-linecap:butt;stroke-linejoin:miter;stroke:rgb(19.999695%,19.599915%,56.498718%);stroke-opacity:1;stroke-miterlimit:4;" d="M 4964.765625 1029.934375 L 1214.921875 1029.934375 L 1214.921875 1929.895313 L 4964.765625 1929.895313 Z M 4964.765625 1029.934375 " transform="matrix(0.1,0,0,-0.1,0,615.97)"/>
<path style=" stroke:none;fill-rule:nonzero;fill:rgb(19.999695%,19.599915%,56.498718%);fill-opacity:1;" d="M 182.550781 446.582031 C 178.328125 443.484375 173.554688 441.933594 168.230469 441.933594 C 165.105469 441.933594 162.476563 442.609375 160.335938 443.953125 L 158.339844 445.300781 C 157.527344 446.085938 156.605469 447.152344 155.5625 448.5 C 154.230469 450.183594 153.621094 451.25 153.738281 451.699219 L 155.039063 454.558594 L 159.382813 454.558594 L 165.890625 461.058594 L 156.867188 461.058594 L 156.867188 505.183594 L 150.242188 499.039063 L 150.242188 461.058594 L 144.566406 461.058594 L 138.117188 454.558594 L 149.398438 454.558594 C 148.703125 453.882813 148.039063 453.167969 147.402344 452.40625 C 146.769531 451.648438 146.449219 450.761719 146.449219 449.746094 C 146.449219 448.058594 146.769531 446.683594 147.40625 445.613281 C 149.140625 443.023438 150.589844 441.195313 151.742188 440.125 C 153.132813 438.832031 155.214844 437.5625 157.992188 436.324219 C 159.726563 435.480469 161.753906 435.058594 164.066406 435.058594 C 169.851563 435.058594 176.015625 437.035156 182.550781 440.984375 C 184.574219 442.226563 187.265625 444.507813 190.621094 447.835938 L 192.789063 454.097656 L 182.550781 446.582031 "/>
<path style=" stroke:none;fill-rule:nonzero;fill:rgb(19.999695%,19.599915%,56.498718%);fill-opacity:1;" d="M 161.488281 461.058594 L 154.980469 454.558594 L 207.746094 454.558594 L 214.601563 461.058594 Z M 200.433594 494.070313 C 197.023438 495.980469 193.753906 496.933594 190.632813 496.933594 C 188.320313 496.933594 185.890625 496.457031 183.347656 495.5 C 180.457031 494.320313 177.566406 491.820313 174.675781 488 C 172.1875 484.796875 170.453125 482.039063 169.46875 479.734375 C 166.695313 473.046875 164.410156 466.667969 162.617188 460.597656 L 167.652344 462.535156 C 169.503906 466.917969 170.832031 469.894531 171.644531 471.464844 C 173.261719 474.890625 174.882813 477.730469 176.503906 479.976563 C 180.320313 485.199219 185.125 487.808594 190.910156 487.808594 C 193.511719 487.808594 196.203125 486.660156 198.980469 484.359375 C 201.0625 482.679688 202.105469 480.6875 202.105469 478.386719 C 202.105469 476.59375 201.527344 474.855469 200.371094 473.171875 C 199.039063 471.265625 197.503906 470.308594 195.769531 470.308594 C 195.480469 470.308594 195.101563 470.367188 194.640625 470.480469 C 195.367188 471.664063 195.730469 473.015625 195.730469 474.539063 C 195.730469 479.21875 193.089844 481.558594 187.804688 481.558594 C 185.191406 481.558594 183.128906 480.6875 181.621094 478.941406 C 180.109375 477.195313 179.355469 475.03125 179.355469 472.441406 C 179.355469 469.625 180.496094 467.277344 182.78125 465.390625 C 185.066406 463.503906 187.683594 462.558594 190.632813 462.558594 C 191.789063 462.558594 193.175781 462.757813 194.796875 463.148438 C 200.636719 464.441406 204.714844 468.625 207.027344 475.703125 C 207.664063 477.613281 207.980469 479.496094 207.980469 481.347656 C 207.980469 486.964844 205.464844 491.207031 200.433594 494.070313 "/>
<path style=" stroke:none;fill-rule:nonzero;fill:rgb(19.999695%,19.599915%,56.498718%);fill-opacity:1;" d="M 210.953125 461.058594 L 204.445313 454.558594 L 257.210938 454.558594 L 264.0625 461.058594 Z M 249.898438 494.070313 C 246.484375 495.980469 243.21875 496.933594 240.097656 496.933594 C 237.785156 496.933594 235.355469 496.457031 232.8125 495.5 C 229.921875 494.320313 227.027344 491.820313 224.140625 488 C 221.648438 484.796875 219.914063 482.039063 218.933594 479.734375 C 216.15625 473.046875 213.875 466.667969 212.082031 460.597656 L 217.113281 462.535156 C 218.96875 466.917969 220.296875 469.894531 221.105469 471.464844 C 222.726563 474.890625 224.347656 477.730469 225.96875 479.976563 C 229.785156 485.199219 234.589844 487.808594 240.375 487.808594 C 242.976563 487.808594 245.667969 486.660156 248.445313 484.359375 C 250.527344 482.679688 251.570313 480.6875 251.570313 478.386719 C 251.570313 476.59375 250.988281 474.855469 249.835938 473.171875 C 248.503906 471.265625 246.96875 470.308594 245.230469 470.308594 C 244.941406 470.308594 244.566406 470.367188 244.105469 470.480469 C 244.828125 471.664063 245.195313 473.015625 245.195313 474.539063 C 245.195313 479.21875 242.554688 481.558594 237.269531 481.558594 C 234.65625 481.558594 232.59375 480.6875 231.085938 478.941406 C 229.574219 477.195313 228.820313 475.03125 228.820313 472.441406 C 228.820313 469.625 229.960938 467.277344 232.246094 465.390625 C 234.53125 463.503906 237.148438 462.558594 240.097656 462.558594 C 241.253906 462.558594 242.640625 462.757813 244.261719 463.148438 C 250.101563 464.441406 254.179688 468.625 256.488281 475.703125 C 257.128906 477.613281 257.445313 479.496094 257.445313 481.347656 C 257.445313 486.964844 254.929688 491.207031 249.898438 494.070313 "/>
<path style=" stroke:none;fill-rule:nonzero;fill:rgb(19.999695%,19.599915%,56.498718%);fill-opacity:1;" d="M 267.195313 458.570313 L 267.0625 457.140625 C 266.792969 454.386719 266.660156 450.652344 266.660156 445.933594 L 270.4375 448.867188 C 270.667969 450.707031 271.039063 452.242188 271.554688 453.472656 C 271.78125 453.808594 272.097656 454.167969 272.5 454.558594 L 275.421875 454.558594 L 281.859375 461.058594 L 273.035156 461.058594 L 273.035156 506.933594 L 266.660156 500.296875 L 266.660156 468.453125 C 266.542969 467.222656 266.429688 466.464844 266.3125 466.183594 C 265.964844 464.730469 265.144531 463.511719 263.84375 462.53125 C 262.539063 461.550781 261.109375 461.058594 259.550781 461.058594 C 259.261719 461.058594 258.769531 461.058594 258.074219 461.058594 L 251.660156 455.058594 C 254.554688 454.726563 256.636719 454.558594 257.90625 454.558594 C 262.246094 454.558594 265.34375 455.898438 267.195313 458.570313 "/>
<path style=" stroke:none;fill-rule:nonzero;fill:rgb(19.999695%,19.599915%,56.498718%);fill-opacity:1;" d="M 317.4375 461.058594 L 317.4375 506.058594 L 310.9375 498.824219 L 310.9375 479.222656 C 310.648438 478.324219 309.96875 477.429688 308.894531 476.53125 C 307.820313 475.632813 306.820313 475.183594 305.894531 475.183594 C 304.5625 475.183594 303.347656 475.996094 302.242188 477.621094 C 297.433594 484.734375 294.214844 488.40625 292.59375 488.628906 C 292.1875 488.683594 291.605469 488.710938 290.855469 488.710938 C 288.996094 488.710938 287.664063 488.460938 286.855469 487.953125 C 285.113281 487.445313 282.679688 484.238281 279.550781 478.328125 L 284.582031 473.515625 C 284.753906 475.429688 285.132813 476.921875 285.710938 477.988281 C 286.636719 479.566406 287.359375 480.351563 287.878906 480.351563 C 288.515625 480.351563 289.613281 479.339844 291.179688 477.308594 L 294.648438 472.65625 C 294.300781 469.386719 293.285156 467.105469 291.609375 465.808594 C 290.742188 465.074219 288.660156 464.652344 285.363281 464.539063 C 282.410156 464.371094 280.445313 463.550781 279.460938 462.085938 C 279.34375 461.917969 279.054688 461.496094 278.59375 460.816406 L 277.554688 460.226563 L 271.5625 454.558594 L 320.335938 454.558594 L 326.84375 461.058594 Z M 298.980469 468.871094 L 299.9375 468.117188 C 301.4375 466.996094 302.648438 466.433594 303.574219 466.433594 C 305.535156 466.433594 307.992188 468.203125 310.9375 471.742188 L 310.9375 461.058594 L 295.429688 461.058594 C 297.738281 462.886719 298.925781 465.492188 298.980469 468.871094 "/>
<path style=" stroke:none;fill-rule:nonzero;fill:rgb(19.999695%,19.599915%,56.498718%);fill-opacity:1;" d="M 376.703125 464.226563 C 376.578125 462.648438 376.453125 461.070313 376.328125 459.488281 C 376.105469 456.5 375.996094 451.730469 375.996094 445.183594 L 380.941406 449.828125 C 380.613281 450.449219 380.453125 451.152344 380.453125 451.9375 C 380.453125 453.570313 381.09375 454.527344 382.371094 454.808594 C 383.011719 454.921875 383.796875 454.796875 384.730469 454.433594 L 391.445313 460.9375 L 382.203125 460.9375 L 382.203125 506.558594 L 374.953125 499.308594 L 375.453125 476.117188 C 375.453125 474.316406 374.742188 472.140625 373.320313 469.582031 C 371.898438 467.023438 370.433594 465.183594 368.925781 464.058594 C 366.890625 462.597656 364.914063 462.003906 363.003906 462.285156 C 359.753906 462.773438 357.488281 463.90625 356.210938 465.683594 C 356.964844 465.683594 357.804688 465.683594 358.730469 465.683594 C 361.328125 465.683594 363.515625 466.347656 365.277344 467.667969 C 367.046875 468.988281 368.070313 470.886719 368.359375 473.359375 C 368.59375 474.933594 367.953125 477.101563 366.449219 479.855469 C 365.234375 482.046875 363.847656 484.015625 362.285156 485.757813 C 361.59375 486.546875 360.605469 487.640625 359.335938 489.046875 L 352.738281 481.785156 C 353.84375 481 355.761719 479.199219 358.492188 476.382813 C 361.050781 473.851563 362.328125 472.273438 362.328125 471.652344 C 362.328125 471.089844 361.894531 470.808594 361.023438 470.808594 C 360.558594 470.808594 359.28125 471.402344 357.191406 472.585938 C 355.105469 473.769531 353.539063 474.359375 352.496094 474.359375 C 351.738281 474.359375 351.042969 474.191406 350.40625 473.851563 C 347.855469 472.214844 346.578125 470.070313 346.578125 467.417969 C 346.578125 465.554688 347.214844 463.566406 348.488281 461.449219 C 349.761719 459.335938 351.234375 457.796875 352.914063 456.835938 C 354.996094 455.652344 357.429688 455.058594 360.210938 455.058594 C 367.964844 455.058594 373.460938 458.117188 376.703125 464.226563 "/>
<path style=" stroke:none;fill-rule:nonzero;fill:rgb(19.999695%,19.599915%,56.498718%);fill-opacity:1;" d="M 407.855469 460.558594 C 406.292969 460.558594 404.847656 461.011719 403.519531 461.910156 C 402.1875 462.8125 401.378906 463.996094 401.089844 465.457031 C 400.972656 466.078125 400.914063 466.894531 400.914063 467.90625 C 400.914063 470.777344 401.261719 474.128906 401.953125 477.957031 C 403.230469 484.824219 403.863281 488.90625 403.863281 490.199219 C 403.863281 495.265625 401.230469 499.40625 395.96875 502.613281 C 393.480469 504.078125 391.484375 504.808594 389.980469 504.808594 C 388.53125 504.808594 387.519531 504.078125 386.941406 502.621094 C 386.828125 502.34375 386.769531 502.089844 386.769531 501.863281 C 386.769531 501.023438 387.4375 500.40625 388.765625 500.015625 L 391.453125 499.171875 C 393.308594 497.769531 394.378906 496.875 394.664063 496.480469 C 395.304688 495.527344 395.765625 493.816406 396.054688 491.347656 C 396.109375 490.394531 395.589844 487.816406 394.492188 483.609375 C 393.394531 479.179688 392.84375 476.035156 392.84375 474.183594 C 392.84375 470.988281 393.652344 467.902344 395.273438 464.929688 C 396.3125 463.640625 397.300781 462.351563 398.226563 461.058594 L 387.722656 461.058594 L 381.039063 454.558594 L 405.6875 454.558594 L 412.628906 461.058594 C 409.910156 460.726563 408.316406 460.558594 407.855469 460.558594 "/>
<path style=" stroke:none;fill-rule:nonzero;fill:rgb(19.999695%,19.599915%,56.498718%);fill-opacity:1;" d="M 415.238281 458.570313 L 415.105469 457.140625 C 414.839844 454.386719 414.703125 450.652344 414.703125 445.933594 L 418.484375 448.867188 C 418.714844 450.707031 419.085938 452.242188 419.601563 453.472656 C 419.828125 453.808594 420.144531 454.167969 420.546875 454.558594 L 423.464844 454.558594 L 429.90625 461.058594 L 421.078125 461.058594 L 421.078125 506.933594 L 414.703125 500.296875 L 414.703125 468.453125 C 414.589844 467.222656 414.472656 466.464844 414.355469 466.183594 C 414.011719 464.730469 413.1875 463.511719 411.886719 462.53125 C 410.585938 461.550781 409.152344 461.058594 407.597656 461.058594 C 407.308594 461.058594 406.816406 461.058594 406.121094 461.058594 L 399.703125 455.058594 C 402.601563 454.726563 404.683594 454.558594 405.953125 454.558594 C 410.292969 454.558594 413.390625 455.898438 415.238281 458.570313 "/>
<path style=" stroke:none;fill-rule:nonzero;fill:rgb(19.999695%,19.599915%,56.498718%);fill-opacity:1;" d="M 465.484375 461.058594 L 465.484375 506.058594 L 458.984375 498.824219 L 458.984375 479.222656 C 458.691406 478.324219 458.011719 477.429688 456.9375 476.53125 C 455.867188 475.632813 454.867188 475.183594 453.941406 475.183594 C 452.605469 475.183594 451.390625 475.996094 450.289063 477.621094 C 445.476563 484.734375 442.261719 488.40625 440.636719 488.628906 C 440.230469 488.683594 439.648438 488.710938 438.898438 488.710938 C 437.042969 488.710938 435.710938 488.460938 434.898438 487.953125 C 433.15625 487.445313 430.722656 484.238281 427.59375 478.328125 L 432.628906 473.515625 C 432.800781 475.429688 433.175781 476.921875 433.757813 477.988281 C 434.683594 479.566406 435.402344 480.351563 435.925781 480.351563 C 436.5625 480.351563 437.660156 479.339844 439.222656 477.308594 L 442.691406 472.65625 C 442.347656 469.386719 441.332031 467.105469 439.65625 465.808594 C 438.785156 465.074219 436.703125 464.652344 433.40625 464.539063 C 430.457031 464.371094 428.488281 463.550781 427.507813 462.085938 C 427.390625 461.917969 427.101563 461.496094 426.640625 460.816406 L 425.597656 460.226563 L 419.609375 454.558594 L 468.382813 454.558594 L 474.890625 461.058594 Z M 447.027344 468.871094 L 447.980469 468.117188 C 449.480469 466.996094 450.691406 466.433594 451.617188 466.433594 C 453.582031 466.433594 456.035156 468.203125 458.984375 471.742188 L 458.984375 461.058594 L 443.476563 461.058594 C 445.785156 462.886719 446.96875 465.492188 447.027344 468.871094 "/>
<path style=" stroke:none;fill-rule:nonzero;fill:rgb(19.999695%,19.599915%,56.498718%);fill-opacity:1;" d="M 249.804688 574.3125 C 247.066406 575.867188 244.589844 576.648438 242.371094 576.648438 C 241.234375 576.648438 239.738281 576.195313 237.878906 575.292969 C 235.453125 574.132813 234.238281 572.402344 234.238281 570.089844 C 234.238281 568.382813 234.886719 566.8125 236.175781 565.378906 C 237.464844 563.945313 238.988281 562.957031 240.742188 562.398438 C 241.464844 562.148438 242.367188 562.023438 243.449219 562.023438 C 246.804688 562.023438 249.386719 562.8125 251.191406 564.386719 C 252.222656 563.082031 252.738281 561.75 252.738281 560.394531 C 252.738281 559.191406 251.96875 557.734375 250.421875 556.027344 C 247.117188 552.261719 243.175781 548.320313 238.589844 544.199219 C 235.855469 541.792969 234.488281 539.507813 234.488281 537.347656 C 234.488281 535.039063 235.527344 533.308594 237.605469 532.152344 C 238.488281 531.648438 239.347656 531.398438 240.179688 531.398438 C 241.734375 531.398438 242.96875 531.949219 243.878906 533.054688 C 244.785156 534.160156 245.238281 535.4375 245.238281 536.894531 C 245.238281 537.296875 245.089844 538.023438 244.785156 539.078125 C 248.601563 542.640625 251.773438 546.082031 254.300781 549.390625 C 257.34375 553.308594 258.863281 557.199219 258.863281 561.0625 C 258.863281 566.484375 255.84375 570.902344 249.804688 574.3125 "/>
<path style=" stroke:none;fill-rule:nonzero;fill:rgb(19.999695%,19.599915%,56.498718%);fill-opacity:1;" d="M 272.820313 538.808594 C 273.078125 539.113281 275.195313 539.871094 279.171875 541.082031 C 281.546875 541.785156 283.921875 542.492188 286.296875 543.195313 C 289.960938 544.460938 292.953125 546.523438 295.277344 549.398438 C 297.601563 552.269531 298.867188 555.570313 299.074219 559.300781 C 299.332031 562.980469 297.242188 566.5625 292.804688 570.039063 C 288.78125 573.164063 284.882813 574.574219 281.117188 574.273438 L 282.667969 565.976563 C 282.769531 565.46875 282.824219 565.035156 282.824219 564.679688 C 282.824219 562.652344 282.019531 560.878906 280.417969 559.351563 C 279.378906 558.289063 278.785156 557.730469 278.628906 557.679688 C 278.320313 557.527344 277.492188 557.324219 276.144531 557.070313 C 275.574219 557.019531 274.851563 557.601563 273.972656 558.816406 C 273.039063 560.285156 272.574219 561.730469 272.574219 563.148438 C 272.574219 563.910156 272.757813 564.492188 273.125 564.898438 C 276.589844 564.597656 278.324219 566.046875 278.324219 569.25 C 278.324219 570.648438 277.960938 571.796875 277.234375 572.699219 C 276.40625 573.75 275.292969 574.273438 273.894531 574.273438 C 271.507813 574.273438 269.589844 573.292969 268.140625 571.332031 C 266.84375 569.574219 266.199219 567.511719 266.199219 565.148438 C 266.199219 561.832031 267.273438 558.8125 269.429688 556.097656 C 271.734375 553.132813 274.53125 551.648438 277.8125 551.648438 C 280.839844 551.648438 283.492188 552.917969 285.773438 555.457031 C 288.054688 557.992188 289.199219 560.769531 289.199219 563.78125 C 289.199219 564.035156 289.199219 564.285156 289.199219 564.535156 L 290.832031 563.40625 C 291.972656 562.457031 292.59375 561.222656 292.699219 559.714844 C 292.800781 557.105469 291.355469 554.972656 288.363281 553.316406 L 277.296875 549.171875 C 274.097656 547.917969 271.386719 546.410156 269.167969 544.652344 C 266.019531 542.195313 264.449219 539.632813 264.449219 536.972656 C 264.449219 536.570313 264.5 536.167969 264.601563 535.765625 C 265.429688 532.605469 267.058594 531.023438 269.488281 531.023438 C 270.832031 531.023438 271.957031 531.488281 272.859375 532.421875 C 273.765625 533.355469 274.21875 534.476563 274.21875 535.785156 C 274.21875 537.097656 273.75 538.105469 272.820313 538.808594 "/>
<path style=" stroke:none;fill-rule:nonzero;fill:rgb(19.999695%,19.599915%,56.498718%);fill-opacity:1;" d="M 323.035156 575.296875 C 319.773438 575.296875 316.535156 574.042969 313.328125 571.53125 C 310.117188 569.023438 307.453125 565.609375 305.332031 561.292969 C 303.828125 558.277344 302.378906 554.160156 300.980469 548.9375 C 300.515625 547.230469 300.128906 544.570313 299.816406 540.957031 L 304.027344 542.765625 C 304.855469 547.089844 305.816406 550.445313 306.910156 552.835938 C 308 555.222656 309.921875 558.277344 312.675781 562 C 315.066406 565.113281 318.496094 566.671875 322.964844 566.671875 C 325.824219 566.671875 328.199219 565.820313 330.097656 564.109375 C 331.992188 562.398438 332.941406 560.164063 332.941406 557.398438 C 332.941406 556.191406 332.65625 555.007813 332.082031 553.851563 C 329.582031 557.234375 326.226563 558.921875 322.011719 558.921875 C 319.773438 558.921875 317.769531 558.183594 316 556.699219 C 314.230469 555.21875 313.1875 553.421875 312.875 551.3125 L 311.472656 541.890625 C 310.429688 541.691406 309.558594 541.148438 308.855469 540.269531 C 308.152344 539.390625 307.800781 538.425781 307.800781 537.371094 C 307.800781 535.964844 308.34375 534.84375 309.429688 534.015625 C 310.515625 533.1875 311.78125 532.824219 313.230469 532.921875 C 317.003906 533.175781 318.890625 535.4375 318.890625 539.714844 L 318.890625 551.640625 C 318.890625 552.546875 319.355469 552.972656 320.289063 552.921875 C 321.324219 552.820313 322.335938 552.316406 323.324219 551.40625 C 323.324219 551.355469 324.0625 550.5 325.539063 548.832031 C 327.015625 547.164063 328.167969 545.015625 329 542.386719 C 334.960938 546.554688 337.941406 551.753906 337.941406 557.976563 C 337.941406 562.597656 336.671875 566.5625 334.136719 569.878906 C 331.394531 573.492188 327.691406 575.296875 323.035156 575.296875 "/>
<path style=" stroke:none;fill-rule:nonzero;fill:rgb(19.999695%,19.599915%,56.498718%);fill-opacity:1;" d="M 355.738281 573.773438 C 351.296875 574.175781 347.546875 573.042969 344.496094 570.378906 C 341.757813 568.015625 340.390625 565.347656 340.390625 562.378906 C 340.390625 561.675781 340.492188 561 340.699219 560.34375 C 342.042969 556.773438 344.238281 554.359375 347.289063 553.101563 C 343.574219 551.292969 341.6875 548.273438 341.640625 544.046875 C 341.589844 540.777344 342.902344 537.914063 345.59375 535.449219 C 348.742188 532.582031 352.539063 531.148438 356.984375 531.148438 C 360.394531 531.148438 363.265625 532.152344 365.589844 534.167969 C 368.121094 536.277344 369.390625 538.742188 369.390625 541.558594 C 369.390625 543.167969 368.832031 544.84375 367.722656 546.578125 C 366.605469 548.3125 365.328125 549.65625 363.882813 550.613281 C 368.273438 552.675781 370.546875 556.371094 370.703125 561.703125 C 370.855469 565.222656 369.257813 568.140625 365.894531 570.453125 C 363.054688 572.363281 359.667969 573.472656 355.738281 573.773438 Z M 359.769531 558.105469 C 357.59375 556.511719 355.886719 555.710938 354.644531 555.710938 C 352.679688 557.058594 351.359375 558.03125 350.6875 558.628906 C 349.238281 559.972656 348.515625 561.34375 348.515625 562.738281 C 348.515625 563.585938 348.746094 564.335938 349.214844 564.980469 C 350.402344 566.925781 352.496094 567.898438 355.496094 567.898438 C 359.53125 567.898438 362.121094 566.277344 363.261719 563.039063 C 363.105469 561.34375 361.9375 559.699219 359.769531 558.105469 Z M 355.65625 536.148438 C 354.109375 536.148438 352.671875 536.582031 351.332031 537.441406 C 349.785156 538.40625 349.015625 539.597656 349.015625 541.019531 C 349.015625 542.691406 349.839844 544.238281 351.484375 545.660156 C 352.980469 546.878906 354.628906 547.664063 356.429688 548.019531 C 358.335938 546.957031 359.644531 546.140625 360.367188 545.585938 C 361.910156 544.367188 362.710938 543.125 362.765625 541.855469 C 362.765625 540.179688 362.015625 538.8125 360.523438 537.746094 C 359.027344 536.679688 357.40625 536.148438 355.65625 536.148438 "/>
<path style=" stroke:none;fill-rule:nonzero;fill:rgb(92.199707%,18.798828%,17.999268%);fill-opacity:1;" d="M 290.5625 121.730469 C 290.5625 121.730469 311.894531 167.0625 273.230469 229.0625 C 234.5625 291.0625 233.226563 356.394531 311.226563 423.730469 C 312.5625 393.730469 325.226563 346.394531 349.894531 301.730469 C 374.5625 257.0625 354.5625 175.0625 290.5625 121.730469 "/>
<path style=" stroke:none;fill-rule:nonzero;fill:rgb(98.399353%,91.799927%,16.499329%);fill-opacity:1;" d="M 294.59375 248.632813 C 283.230469 267.953125 277.640625 285.796875 277.640625 302.863281 C 277.640625 306.277344 277.863281 309.664063 278.308594 313.023438 C 280.3125 328.089844 287.085938 343.199219 298.449219 358.179688 C 303.226563 337.675781 311.433594 313.578125 324.199219 289.070313 C 327.964844 281.835938 329.859375 272.636719 329.859375 262.328125 C 329.859375 244.289063 324.039063 222.863281 312.324219 202.640625 C 309.742188 216.332031 304.4375 231.902344 294.59375 248.632813 "/>
</g>
</svg>
