<?xml version="1.0" encoding="iso-8859-1"?>
<!-- Uploaded to: SVG Repo, www.svgrepo.com, Generator: SVG Repo Mixer Tools -->
<svg version="1.1" id="Layer_1" xmlns="http://www.w3.org/2000/svg" xmlns:xlink="http://www.w3.org/1999/xlink" 
	 viewBox="0 0 512 512" xml:space="preserve">
<circle style="fill:#B5F1F4;" cx="256" cy="256" r="256"/>
<path style="fill:#84DBFF;" d="M364.06,248.853l-28.794,30.817l-58.147-58.147l-31.437,27.451L138.93,142.222l-41.974,28.444
	l39.77,39.771L125.4,356.024l154.827,154.827c90.026-8.452,166.486-63.517,205.014-140.817L364.06,248.853z"/>
<rect x="256" y="248.846" style="fill:#935635;" width="108.06" height="86.454"/>
<rect x="134.896" y="221.522" style="fill:#F4A200;" width="142.222" height="113.778"/>
<circle style="fill:#FFFFFF;" cx="191.733" cy="365.761" r="30.41"/>
<circle style="fill:#E6F3FF;" cx="351.573" cy="365.761" r="30.41"/>
<path style="fill:#324A5E;" d="M408.148,324.136H138.93V142.222H96.956v28.444H125.4v185.358h27.639
	c-0.784,3.115-1.205,6.373-1.205,9.73c0,21.995,17.896,39.891,39.893,39.891c21.995,0,39.891-17.894,39.891-39.891
	c0-3.356-0.421-6.613-1.205-9.73h82.47c-0.784,3.115-1.205,6.373-1.205,9.73c0,21.995,17.896,39.891,39.891,39.891
	c21.995,0,39.891-17.894,39.891-39.891c0-3.355-0.421-6.613-1.205-9.73h17.896v-31.889H408.148z M191.728,386.681
	c-11.54,0-20.93-9.388-20.93-20.928s9.388-20.928,20.93-20.928c11.538,0,20.928,9.388,20.928,20.928
	S203.266,386.681,191.728,386.681z M351.568,386.681c-11.538,0-20.928-9.388-20.928-20.928s9.388-20.928,20.928-20.928
	s20.928,9.388,20.928,20.928S363.106,386.681,351.568,386.681z"/>
<path style="fill:#2B3B4E;" d="M408.148,324.136h-133.76v31.889h38.493c-0.784,3.115-1.205,6.373-1.205,9.73
	c0,21.995,17.896,39.891,39.891,39.891c21.995,0,39.891-17.894,39.891-39.891c0-3.355-0.421-6.613-1.205-9.73h17.896v-31.889
	H408.148z M351.568,386.681c-11.538,0-20.928-9.388-20.928-20.928s9.388-20.928,20.928-20.928s20.928,9.388,20.928,20.928
	S363.106,386.681,351.568,386.681z"/>
</svg>